<svg xmlns="http://www.w3.org/2000/svg" xmlns:xlink="http://www.w3.org/1999/xlink" width="500" zoomAndPan="magnify" viewBox="0 0 375 374.999991" height="500" preserveAspectRatio="xMidYMid meet" version="1.0"><defs><clipPath id="0247701ff4"><path d="M 43 18.75 L 332.296875 18.75 L 332.296875 356.25 L 43 356.25 Z M 43 18.75 " clip-rule="nonzero"/></clipPath><clipPath id="18661ac74a"><path d="M 85.992188 37.5 L 147.691406 37.5 L 147.691406 109.359375 L 85.992188 109.359375 Z M 85.992188 37.5 " clip-rule="nonzero"/></clipPath></defs><path fill="#ffde59" d="M 303.996094 115.179688 L 314.90625 115.179688 C 315.625 115.179688 316.328125 115.074219 317.015625 114.863281 C 317.703125 114.65625 318.347656 114.351562 318.945312 113.953125 C 319.542969 113.554688 320.070312 113.078125 320.527344 112.523438 C 320.984375 111.96875 321.351562 111.359375 321.628906 110.695312 C 321.90625 110.03125 322.082031 109.34375 322.152344 108.628906 C 322.226562 107.914062 322.195312 107.203125 322.058594 106.496094 C 321.921875 105.792969 321.683594 105.121094 321.351562 104.484375 C 321.015625 103.847656 320.59375 103.273438 320.089844 102.761719 L 248.371094 31.105469 C 247.863281 30.597656 247.296875 30.175781 246.664062 29.835938 C 246.035156 29.496094 245.367188 29.257812 244.664062 29.117188 C 243.960938 28.976562 243.253906 28.941406 242.539062 29.011719 C 241.828125 29.082031 241.140625 29.253906 240.476562 29.527344 C 239.816406 29.804688 239.207031 30.167969 238.65625 30.625 C 238.101562 31.078125 237.625 31.605469 237.230469 32.199219 C 236.832031 32.796875 236.53125 33.4375 236.324219 34.125 C 236.117188 34.808594 236.015625 35.511719 236.015625 36.226562 L 236.015625 47.136719 C 236.015625 48.25 236.039062 49.363281 236.09375 50.472656 C 236.148438 51.585938 236.230469 52.695312 236.335938 53.804688 C 236.445312 54.910156 236.582031 56.015625 236.742188 57.117188 C 236.90625 58.21875 237.09375 59.316406 237.3125 60.40625 C 237.527344 61.5 237.769531 62.585938 238.039062 63.664062 C 238.308594 64.746094 238.605469 65.816406 238.929688 66.882812 C 239.25 67.949219 239.597656 69.007812 239.972656 70.054688 C 240.347656 71.101562 240.746094 72.140625 241.171875 73.171875 C 241.597656 74.199219 242.046875 75.214844 242.523438 76.222656 C 243 77.230469 243.5 78.222656 244.023438 79.207031 C 244.546875 80.1875 245.09375 81.15625 245.667969 82.113281 C 246.238281 83.066406 246.832031 84.007812 247.453125 84.933594 C 248.070312 85.859375 248.710938 86.769531 249.371094 87.664062 C 250.035156 88.558594 250.71875 89.4375 251.425781 90.296875 C 252.132812 91.160156 252.859375 92 253.605469 92.828125 C 254.351562 93.652344 255.117188 94.457031 255.90625 95.246094 C 256.691406 96.035156 257.5 96.800781 258.324219 97.550781 C 259.148438 98.296875 259.988281 99.023438 260.851562 99.730469 C 261.710938 100.4375 262.585938 101.121094 263.480469 101.785156 C 264.375 102.449219 265.285156 103.089844 266.210938 103.707031 C 267.136719 104.328125 268.074219 104.921875 269.03125 105.496094 C 269.984375 106.070312 270.953125 106.617188 271.933594 107.140625 C 272.917969 107.667969 273.910156 108.167969 274.917969 108.644531 C 275.921875 109.121094 276.941406 109.570312 277.96875 109.996094 C 278.996094 110.425781 280.035156 110.824219 281.082031 111.199219 C 282.132812 111.574219 283.1875 111.925781 284.253906 112.246094 C 285.316406 112.570312 286.390625 112.867188 287.46875 113.140625 C 288.550781 113.410156 289.636719 113.652344 290.726562 113.871094 C 291.820312 114.089844 292.914062 114.277344 294.015625 114.441406 C 295.117188 114.605469 296.222656 114.742188 297.332031 114.851562 C 298.4375 114.960938 299.546875 115.042969 300.660156 115.097656 C 301.773438 115.152344 302.882812 115.179688 303.996094 115.179688 Z M 303.996094 115.179688 " fill-opacity="1" fill-rule="nonzero"/><g clip-path="url(#0247701ff4)"><path fill="#ffde59" d="M 303.996094 139.285156 C 302.488281 139.285156 300.984375 139.25 299.476562 139.175781 C 297.972656 139.101562 296.46875 138.988281 294.96875 138.84375 C 293.46875 138.695312 291.972656 138.507812 290.480469 138.289062 C 288.988281 138.066406 287.503906 137.808594 286.023438 137.515625 C 284.546875 137.21875 283.074219 136.890625 281.613281 136.523438 C 280.148438 136.15625 278.699219 135.753906 277.253906 135.316406 C 275.8125 134.878906 274.382812 134.40625 272.960938 133.898438 C 271.542969 133.390625 270.136719 132.847656 268.742188 132.269531 C 267.351562 131.691406 265.972656 131.082031 264.609375 130.4375 C 263.246094 129.792969 261.898438 129.113281 260.570312 128.402344 C 259.242188 127.691406 257.929688 126.949219 256.636719 126.171875 C 255.34375 125.398438 254.070312 124.589844 252.816406 123.753906 C 251.5625 122.914062 250.332031 122.046875 249.121094 121.148438 C 247.910156 120.25 246.722656 119.324219 245.554688 118.367188 C 244.390625 117.410156 243.25 116.425781 242.132812 115.410156 C 241.015625 114.398438 239.925781 113.359375 238.859375 112.292969 C 237.792969 111.226562 236.753906 110.132812 235.742188 109.015625 C 234.730469 107.898438 233.746094 106.757812 232.789062 105.589844 C 231.835938 104.425781 230.90625 103.238281 230.007812 102.023438 C 229.113281 100.8125 228.246094 99.582031 227.40625 98.328125 C 226.570312 97.074219 225.765625 95.800781 224.988281 94.503906 C 224.214844 93.210938 223.472656 91.902344 222.761719 90.570312 C 222.050781 89.242188 221.375 87.894531 220.730469 86.53125 C 220.085938 85.167969 219.476562 83.789062 218.902344 82.394531 C 218.324219 81.003906 217.78125 79.597656 217.277344 78.175781 C 216.769531 76.757812 216.296875 75.324219 215.859375 73.882812 C 215.421875 72.4375 215.023438 70.984375 214.65625 69.523438 C 214.289062 68.058594 213.960938 66.589844 213.667969 65.109375 C 213.375 63.632812 213.117188 62.144531 212.898438 60.65625 C 212.675781 59.164062 212.492188 57.667969 212.347656 56.167969 C 212.199219 54.664062 212.089844 53.164062 212.015625 51.65625 C 211.945312 50.152344 211.90625 48.644531 211.910156 47.136719 C 211.910156 46.207031 211.863281 45.277344 211.773438 44.355469 C 211.679688 43.429688 211.542969 42.511719 211.363281 41.597656 C 211.183594 40.6875 210.957031 39.785156 210.6875 38.894531 C 210.417969 38.007812 210.101562 37.132812 209.746094 36.273438 C 209.390625 35.414062 208.996094 34.574219 208.558594 33.753906 C 208.117188 32.933594 207.640625 32.136719 207.125 31.367188 C 206.609375 30.59375 206.054688 29.847656 205.464844 29.128906 C 204.875 28.410156 204.25 27.722656 203.59375 27.0625 C 202.9375 26.40625 202.25 25.78125 201.53125 25.191406 C 200.8125 24.605469 200.066406 24.050781 199.292969 23.535156 C 198.519531 23.015625 197.722656 22.539062 196.902344 22.101562 C 196.082031 21.664062 195.242188 21.265625 194.386719 20.910156 C 193.527344 20.554688 192.652344 20.242188 191.761719 19.972656 C 190.871094 19.703125 189.972656 19.476562 189.058594 19.296875 C 188.148438 19.113281 187.230469 18.976562 186.304688 18.886719 C 185.378906 18.796875 184.453125 18.75 183.523438 18.75 L 111.199219 18.75 C 110.085938 18.75 108.972656 18.773438 107.863281 18.828125 C 106.75 18.882812 105.636719 18.964844 104.53125 19.070312 C 103.421875 19.179688 102.316406 19.316406 101.214844 19.480469 C 100.113281 19.640625 99.015625 19.832031 97.921875 20.046875 C 96.828125 20.265625 95.742188 20.507812 94.664062 20.777344 C 93.582031 21.046875 92.507812 21.34375 91.441406 21.667969 C 90.375 21.988281 89.320312 22.335938 88.269531 22.710938 C 87.222656 23.085938 86.183594 23.488281 85.152344 23.914062 C 84.125 24.339844 83.105469 24.789062 82.097656 25.265625 C 81.089844 25.742188 80.097656 26.242188 79.113281 26.765625 C 78.132812 27.292969 77.164062 27.839844 76.207031 28.414062 C 75.25 28.984375 74.3125 29.578125 73.382812 30.199219 C 72.457031 30.816406 71.546875 31.457031 70.652344 32.121094 C 69.757812 32.785156 68.878906 33.46875 68.019531 34.175781 C 67.15625 34.882812 66.316406 35.609375 65.488281 36.359375 C 64.664062 37.105469 63.859375 37.875 63.070312 38.660156 C 62.28125 39.449219 61.515625 40.253906 60.765625 41.082031 C 60.019531 41.90625 59.292969 42.75 58.585938 43.609375 C 57.878906 44.472656 57.195312 45.347656 56.53125 46.246094 C 55.867188 47.140625 55.226562 48.050781 54.605469 48.976562 C 53.988281 49.902344 53.394531 50.84375 52.820312 51.796875 C 52.25 52.753906 51.699219 53.722656 51.175781 54.707031 C 50.648438 55.6875 50.148438 56.683594 49.675781 57.691406 C 49.199219 58.695312 48.746094 59.714844 48.320312 60.746094 C 47.894531 61.773438 47.496094 62.8125 47.121094 63.863281 C 46.746094 64.910156 46.398438 65.96875 46.074219 67.035156 C 45.753906 68.101562 45.457031 69.171875 45.1875 70.253906 C 44.914062 71.335938 44.671875 72.421875 44.457031 73.515625 C 44.238281 74.605469 44.050781 75.703125 43.886719 76.804688 C 43.722656 77.90625 43.589844 79.011719 43.480469 80.121094 C 43.371094 81.230469 43.292969 82.339844 43.238281 83.453125 C 43.183594 84.566406 43.15625 85.679688 43.160156 86.792969 L 43.160156 288.207031 C 43.15625 289.320312 43.183594 290.433594 43.238281 291.546875 C 43.292969 292.65625 43.371094 293.765625 43.480469 294.875 C 43.589844 295.984375 43.722656 297.085938 43.886719 298.1875 C 44.046875 299.289062 44.238281 300.386719 44.453125 301.480469 C 44.671875 302.570312 44.914062 303.65625 45.183594 304.738281 C 45.453125 305.816406 45.75 306.890625 46.070312 307.957031 C 46.394531 309.019531 46.742188 310.078125 47.117188 311.125 C 47.492188 312.175781 47.890625 313.214844 48.316406 314.242188 C 48.742188 315.269531 49.191406 316.289062 49.667969 317.292969 C 50.140625 318.300781 50.640625 319.296875 51.167969 320.277344 C 51.691406 321.261719 52.238281 322.230469 52.808594 323.183594 C 53.382812 324.140625 53.976562 325.078125 54.59375 326.003906 C 55.210938 326.929688 55.851562 327.839844 56.515625 328.734375 C 57.179688 329.628906 57.863281 330.507812 58.566406 331.367188 C 59.273438 332.230469 60 333.074219 60.746094 333.898438 C 61.496094 334.722656 62.261719 335.53125 63.046875 336.316406 C 63.835938 337.105469 64.640625 337.871094 65.464844 338.621094 C 66.289062 339.367188 67.132812 340.09375 67.992188 340.800781 C 68.851562 341.507812 69.730469 342.195312 70.625 342.855469 C 71.519531 343.519531 72.425781 344.160156 73.351562 344.78125 C 74.277344 345.398438 75.21875 345.996094 76.171875 346.566406 C 77.128906 347.140625 78.097656 347.6875 79.078125 348.214844 C 80.058594 348.738281 81.054688 349.238281 82.058594 349.714844 C 83.066406 350.191406 84.082031 350.644531 85.109375 351.070312 C 86.140625 351.496094 87.175781 351.894531 88.226562 352.273438 C 89.273438 352.648438 90.332031 352.996094 91.394531 353.320312 C 92.460938 353.644531 93.535156 353.941406 94.613281 354.210938 C 95.691406 354.480469 96.777344 354.726562 97.871094 354.941406 C 98.960938 355.160156 100.058594 355.351562 101.160156 355.511719 C 102.261719 355.675781 103.367188 355.8125 104.472656 355.921875 C 105.582031 356.03125 106.691406 356.113281 107.804688 356.167969 C 108.914062 356.222656 110.027344 356.25 111.140625 356.25 L 264.402344 356.25 C 265.515625 356.25 266.628906 356.222656 267.742188 356.167969 C 268.851562 356.113281 269.964844 356.03125 271.070312 355.921875 C 272.179688 355.8125 273.285156 355.675781 274.386719 355.511719 C 275.488281 355.351562 276.585938 355.160156 277.675781 354.941406 C 278.769531 354.726562 279.855469 354.480469 280.933594 354.210938 C 282.015625 353.941406 283.085938 353.644531 284.152344 353.320312 C 285.21875 352.996094 286.277344 352.648438 287.324219 352.273438 C 288.375 351.898438 289.410156 351.496094 290.441406 351.070312 C 291.46875 350.644531 292.488281 350.191406 293.492188 349.71875 C 294.5 349.242188 295.496094 348.742188 296.476562 348.214844 C 297.457031 347.691406 298.425781 347.140625 299.382812 346.570312 C 300.335938 345.996094 301.277344 345.402344 302.203125 344.78125 C 303.128906 344.164062 304.039062 343.523438 304.933594 342.859375 C 305.828125 342.195312 306.707031 341.511719 307.566406 340.804688 C 308.429688 340.097656 309.269531 339.371094 310.097656 338.625 C 310.921875 337.875 311.726562 337.109375 312.515625 336.320312 C 313.300781 335.535156 314.070312 334.726562 314.816406 333.902344 C 315.566406 333.078125 316.292969 332.234375 317 331.375 C 317.707031 330.511719 318.390625 329.636719 319.054688 328.742188 C 319.71875 327.847656 320.359375 326.9375 320.976562 326.011719 C 321.59375 325.085938 322.191406 324.144531 322.761719 323.1875 C 323.335938 322.234375 323.886719 321.265625 324.410156 320.28125 C 324.933594 319.300781 325.433594 318.304688 325.910156 317.300781 C 326.386719 316.292969 326.839844 315.273438 327.265625 314.246094 C 327.691406 313.21875 328.089844 312.179688 328.464844 311.128906 C 328.84375 310.082031 329.191406 309.023438 329.515625 307.960938 C 329.835938 306.894531 330.132812 305.820312 330.40625 304.742188 C 330.675781 303.660156 330.917969 302.574219 331.136719 301.480469 C 331.355469 300.390625 331.542969 299.292969 331.707031 298.191406 C 331.871094 297.089844 332.007812 295.984375 332.117188 294.875 C 332.226562 293.769531 332.308594 292.660156 332.363281 291.546875 C 332.417969 290.433594 332.445312 289.320312 332.445312 288.207031 L 332.445312 167.671875 C 332.445312 166.742188 332.398438 165.8125 332.308594 164.886719 C 332.214844 163.960938 332.078125 163.039062 331.898438 162.125 C 331.714844 161.214844 331.488281 160.3125 331.21875 159.421875 C 330.949219 158.53125 330.632812 157.65625 330.277344 156.796875 C 329.921875 155.933594 329.523438 155.09375 329.082031 154.273438 C 328.644531 153.453125 328.164062 152.65625 327.648438 151.882812 C 327.128906 151.109375 326.574219 150.363281 325.984375 149.644531 C 325.394531 148.925781 324.769531 148.234375 324.109375 147.578125 C 323.449219 146.921875 322.761719 146.296875 322.039062 145.707031 C 321.320312 145.117188 320.570312 144.566406 319.796875 144.046875 C 319.023438 143.53125 318.222656 143.054688 317.402344 142.617188 C 316.582031 142.179688 315.738281 141.785156 314.878906 141.429688 C 314.019531 141.074219 313.140625 140.761719 312.25 140.492188 C 311.359375 140.226562 310.457031 140 309.542969 139.820312 C 308.628906 139.640625 307.710938 139.507812 306.785156 139.417969 C 305.859375 139.328125 304.929688 139.285156 303.996094 139.285156 Z M 157.367188 244.453125 C 156.6875 244.960938 155.925781 245.222656 155.074219 245.238281 L 145.3125 245.238281 C 144.433594 245.214844 143.570312 245.09375 142.722656 244.875 C 142.242188 244.761719 141.839844 244.523438 141.515625 244.152344 C 141.242188 243.765625 141.042969 243.34375 140.914062 242.886719 L 135.789062 227.578125 L 107.402344 227.578125 L 102.582031 242.464844 C 102.480469 242.96875 102.277344 243.429688 101.980469 243.851562 C 101.679688 244.289062 101.277344 244.589844 100.773438 244.753906 C 99.992188 245.019531 99.191406 245.160156 98.363281 245.175781 C 96.996094 245.246094 95.632812 245.246094 94.265625 245.175781 C 92.839844 245.253906 91.414062 245.253906 89.988281 245.175781 C 89.175781 245.167969 88.472656 244.886719 87.878906 244.332031 C 87.449219 243.753906 87.308594 243.109375 87.457031 242.402344 C 87.664062 241.292969 87.964844 240.207031 88.359375 239.148438 L 111.863281 171.589844 C 112.050781 171.011719 112.3125 170.46875 112.648438 169.960938 C 113.0625 169.503906 113.566406 169.183594 114.152344 168.996094 C 115.105469 168.757812 116.066406 168.617188 117.046875 168.574219 L 127.230469 168.574219 C 128.328125 168.617188 129.414062 168.757812 130.488281 168.996094 C 131.125 169.15625 131.667969 169.476562 132.113281 169.960938 C 132.503906 170.515625 132.785156 171.117188 132.957031 171.769531 L 156.523438 239.269531 C 156.902344 240.347656 157.183594 241.453125 157.367188 242.585938 C 157.683594 243.207031 157.683594 243.832031 157.367188 244.453125 Z M 217.632812 203.351562 C 216.292969 206.589844 214.28125 209.34375 211.605469 211.605469 C 208.847656 214.015625 205.714844 215.742188 202.207031 216.789062 C 197.933594 218.027344 193.574219 218.609375 189.128906 218.539062 L 182.738281 218.539062 L 182.738281 242.644531 C 182.75 243.050781 182.628906 243.410156 182.378906 243.730469 C 182.019531 244.097656 181.597656 244.359375 181.113281 244.511719 C 180.339844 244.714844 179.554688 244.855469 178.761719 244.933594 C 177.496094 245.011719 176.230469 245.011719 174.964844 244.933594 C 173.71875 245.007812 172.472656 245.007812 171.226562 244.933594 C 170.433594 244.855469 169.648438 244.714844 168.878906 244.511719 C 168.390625 244.359375 167.96875 244.097656 167.613281 243.730469 C 167.410156 243.394531 167.3125 243.035156 167.308594 242.644531 L 167.308594 174.421875 C 167.253906 173.664062 167.34375 172.925781 167.585938 172.203125 C 167.824219 171.480469 168.195312 170.835938 168.695312 170.261719 C 169.207031 169.78125 169.792969 169.421875 170.453125 169.179688 C 171.113281 168.9375 171.792969 168.839844 172.492188 168.878906 L 195.757812 168.878906 C 197.785156 169.042969 199.792969 169.34375 201.785156 169.78125 C 204.214844 170.265625 206.523438 171.089844 208.714844 172.253906 C 210.988281 173.457031 212.996094 175.003906 214.742188 176.894531 C 216.414062 178.816406 217.660156 180.984375 218.476562 183.402344 C 219.410156 186.136719 219.855469 188.949219 219.804688 191.839844 C 219.839844 195.820312 219.117188 199.65625 217.632812 203.351562 Z M 286.882812 243.851562 C 286.601562 244.304688 286.199219 244.585938 285.675781 244.695312 C 284.851562 244.960938 284.007812 245.121094 283.144531 245.175781 C 281.820312 245.25 280.492188 245.25 279.167969 245.175781 C 277.332031 245.242188 275.503906 245.144531 273.683594 244.875 C 272.8125 244.785156 272.007812 244.503906 271.273438 244.03125 C 270.785156 243.632812 270.402344 243.148438 270.128906 242.585938 L 247.105469 206.425781 L 247.105469 242.585938 C 247.125 243.011719 247.003906 243.390625 246.742188 243.730469 C 246.402344 244.121094 245.980469 244.382812 245.476562 244.511719 C 244.714844 244.78125 243.933594 244.941406 243.128906 244.996094 C 241.882812 245.070312 240.636719 245.070312 239.390625 244.996094 C 238.144531 245.066406 236.898438 245.066406 235.652344 244.996094 C 234.832031 244.933594 234.027344 244.773438 233.242188 244.511719 C 232.761719 244.351562 232.339844 244.089844 231.976562 243.730469 C 231.71875 243.390625 231.597656 243.011719 231.617188 242.585938 L 231.617188 171.046875 C 231.617188 170.628906 231.734375 170.246094 231.976562 169.902344 C 232.34375 169.5625 232.765625 169.320312 233.242188 169.179688 C 234.027344 168.917969 234.832031 168.757812 235.652344 168.695312 C 236.898438 168.625 238.144531 168.625 239.390625 168.695312 C 240.636719 168.621094 241.882812 168.621094 243.128906 168.695312 C 243.933594 168.75 244.714844 168.910156 245.476562 169.179688 C 245.972656 169.292969 246.394531 169.535156 246.742188 169.902344 C 246.984375 170.246094 247.105469 170.628906 247.105469 171.046875 L 247.105469 203.472656 L 269.402344 171.105469 C 269.648438 170.605469 269.988281 170.183594 270.429688 169.839844 C 270.867188 169.457031 271.367188 169.195312 271.933594 169.058594 C 272.71875 168.796875 273.519531 168.65625 274.347656 168.636719 L 278.082031 168.636719 C 279.386719 168.5625 280.695312 168.5625 282 168.636719 C 282.816406 168.726562 283.621094 168.886719 284.410156 169.117188 C 284.917969 169.242188 285.339844 169.503906 285.675781 169.902344 C 285.917969 170.222656 286.039062 170.585938 286.039062 170.988281 C 286.015625 171.703125 285.855469 172.386719 285.554688 173.035156 C 284.929688 174.195312 284.246094 175.320312 283.507812 176.410156 L 262.652344 203.773438 L 285.433594 238.183594 C 286.019531 239.210938 286.519531 240.277344 286.941406 241.378906 C 287.101562 241.785156 287.203125 242.207031 287.242188 242.644531 C 287.226562 243.121094 287.046875 243.523438 286.699219 243.851562 Z M 286.882812 243.851562 " fill-opacity="1" fill-rule="nonzero"/></g><path fill="#ffde59" d="M 198.347656 182.679688 C 196.996094 181.894531 195.550781 181.371094 194.007812 181.113281 C 192.46875 180.917969 190.921875 180.816406 189.367188 180.808594 L 182.738281 180.808594 L 182.738281 206.664062 L 189.730469 206.664062 C 191.800781 206.691406 193.808594 206.351562 195.757812 205.640625 C 197.335938 205.03125 198.703125 204.109375 199.855469 202.867188 C 200.925781 201.570312 201.726562 200.121094 202.265625 198.527344 C 202.820312 196.761719 203.082031 194.957031 203.050781 193.105469 C 203.128906 190.800781 202.667969 188.609375 201.664062 186.535156 C 200.898438 184.957031 199.792969 183.671875 198.347656 182.679688 Z M 198.347656 182.679688 " fill-opacity="1" fill-rule="nonzero"/><path fill="#ffde59" d="M 121.628906 183.402344 L 110.839844 215.765625 L 132.414062 215.765625 L 121.6875 183.402344 Z M 121.628906 183.402344 " fill-opacity="1" fill-rule="nonzero"/><g clip-path="url(#18661ac74a)"><path fill="#ffde59" d="M 85.992188 37.5 L 147.691406 37.5 L 147.691406 109.320312 L 85.992188 109.320312 Z M 85.992188 37.5 " fill-opacity="1" fill-rule="nonzero"/></g></svg>