<svg xmlns="http://www.w3.org/2000/svg" xmlns:xlink="http://www.w3.org/1999/xlink" width="300" zoomAndPan="magnify" viewBox="0 0 224.87999 52.499999" height="70" preserveAspectRatio="xMidYMid meet" version="1.0"><defs><g/><clipPath id="01e22e2e4d"><path d="M 17.714844 13.535156 L 63.726562 13.535156 L 63.726562 38.792969 L 17.714844 38.792969 Z M 17.714844 13.535156 " clip-rule="nonzero"/></clipPath></defs><g clip-path="url(#01e22e2e4d)"><path fill="#ffffff" d="M 41.007812 38.453125 C 33.273438 38.453125 25.660156 34.59375 18.386719 26.980469 L 17.664062 26.222656 L 18.316406 25.40625 C 18.699219 24.921875 27.90625 13.550781 41.070312 13.550781 C 48.828125 13.550781 56.253906 17.523438 63.144531 25.359375 L 63.792969 26.101562 L 63.195312 26.882812 C 62.835938 27.355469 54.1875 38.453125 41.007812 38.453125 Z M 20.882812 26.105469 C 27.449219 32.707031 34.214844 36.054688 41.007812 36.054688 C 51.109375 36.054688 58.511719 28.605469 60.65625 26.179688 C 54.441406 19.390625 47.855469 15.949219 41.070312 15.949219 C 30.980469 15.949219 23.179688 23.589844 20.882812 26.105469 Z M 20.882812 26.105469 " fill-opacity="1" fill-rule="nonzero"/></g><path fill="#ffffff" d="M 40.75 18.34375 C 36.519531 18.34375 33.09375 21.773438 33.09375 26 C 33.09375 30.230469 36.519531 33.65625 40.75 33.65625 C 44.976562 33.65625 48.40625 30.230469 48.40625 26 C 48.40625 21.773438 44.976562 18.34375 40.75 18.34375 Z M 40.75 29.214844 C 38.972656 29.214844 37.535156 27.777344 37.535156 26 C 37.535156 24.226562 38.972656 22.789062 40.75 22.789062 C 42.523438 22.789062 43.960938 24.226562 43.960938 26 C 43.960938 27.777344 42.523438 29.214844 40.75 29.214844 Z M 40.75 29.214844 " fill-opacity="1" fill-rule="nonzero"/><g fill="#ffffff" fill-opacity="1"><g transform="translate(55.58656, 40.219145)"><g><path d="M 9.03125 0.375 C 6.84375 0.375 5.023438 -0.0351562 3.578125 -0.859375 C 2.128906 -1.691406 1.078125 -2.8125 0.421875 -4.21875 L 3.296875 -7.703125 L 3.734375 -7.703125 C 4.203125 -6.578125 4.867188 -5.6875 5.734375 -5.03125 C 6.597656 -4.382812 7.601562 -4.0625 8.75 -4.0625 C 10.03125 -4.0625 10.984375 -4.429688 11.609375 -5.171875 C 12.234375 -5.921875 12.546875 -7.132812 12.546875 -8.8125 L 12.546875 -25.78125 L 17.625 -25.78125 L 17.625 -8.734375 C 17.625 -5.617188 16.914062 -3.320312 15.5 -1.84375 C 14.082031 -0.363281 11.925781 0.375 9.03125 0.375 Z M 9.03125 0.375 "/></g></g></g><g fill="#ffffff" fill-opacity="1"><g transform="translate(76.400597, 40.219145)"><g><path d="M 19.234375 -8.625 L 6.71875 -8.625 C 6.863281 -6.925781 7.347656 -5.691406 8.171875 -4.921875 C 8.992188 -4.160156 10.113281 -3.78125 11.53125 -3.78125 C 12.65625 -3.78125 13.5625 -3.988281 14.25 -4.40625 C 14.945312 -4.820312 15.503906 -5.453125 15.921875 -6.296875 L 16.296875 -6.296875 L 19.546875 -4.21875 C 18.910156 -2.851562 17.953125 -1.742188 16.671875 -0.890625 C 15.390625 -0.046875 13.675781 0.375 11.53125 0.375 C 9.519531 0.375 7.78125 -0.00390625 6.3125 -0.765625 C 4.851562 -1.535156 3.726562 -2.675781 2.9375 -4.1875 C 2.144531 -5.695312 1.75 -7.539062 1.75 -9.71875 C 1.75 -11.925781 2.164062 -13.789062 3 -15.3125 C 3.832031 -16.832031 4.957031 -17.960938 6.375 -18.703125 C 7.800781 -19.453125 9.40625 -19.828125 11.1875 -19.828125 C 13.9375 -19.828125 16.039062 -19.097656 17.5 -17.640625 C 18.96875 -16.179688 19.703125 -14.039062 19.703125 -11.21875 C 19.703125 -10.195312 19.664062 -9.40625 19.59375 -8.84375 Z M 15.03125 -11.78125 C 14.976562 -13.257812 14.628906 -14.335938 13.984375 -15.015625 C 13.347656 -15.691406 12.414062 -16.03125 11.1875 -16.03125 C 8.71875 -16.03125 7.265625 -14.613281 6.828125 -11.78125 Z M 15.03125 -11.78125 "/></g></g></g><g fill="#ffffff" fill-opacity="1"><g transform="translate(97.549776, 40.219145)"><g><path d="M 13.421875 -4.640625 L 14.6875 -1.015625 C 14.164062 -0.585938 13.503906 -0.25 12.703125 0 C 11.898438 0.25 10.992188 0.375 9.984375 0.375 C 7.878906 0.375 6.28125 -0.195312 5.1875 -1.34375 C 4.09375 -2.488281 3.546875 -4.15625 3.546875 -6.34375 L 3.546875 -15.59375 L 0.578125 -15.59375 L 0.578125 -19.46875 L 3.546875 -19.46875 L 3.546875 -23.265625 L 8.4375 -24.0625 L 8.4375 -19.46875 L 13.953125 -19.46875 L 13.953125 -15.59375 L 8.4375 -15.59375 L 8.4375 -6.703125 C 8.4375 -5.734375 8.632812 -5.03125 9.03125 -4.59375 C 9.425781 -4.15625 10.007812 -3.9375 10.78125 -3.9375 C 11.644531 -3.9375 12.398438 -4.171875 13.046875 -4.640625 Z M 13.421875 -4.640625 "/></g></g></g><g fill="#ffffff" fill-opacity="1"><g transform="translate(112.666411, 40.219145)"><g><path d="M 2.796875 0 L 2.796875 -27.265625 L 7.6875 -27.265625 L 7.6875 -16.921875 L 8.0625 -16.84375 C 8.707031 -17.800781 9.5 -18.535156 10.4375 -19.046875 C 11.382812 -19.566406 12.519531 -19.828125 13.84375 -19.828125 C 18.132812 -19.828125 20.28125 -17.394531 20.28125 -12.53125 L 20.28125 0 L 15.40625 0 L 15.40625 -11.90625 C 15.40625 -13.238281 15.140625 -14.203125 14.609375 -14.796875 C 14.078125 -15.398438 13.253906 -15.703125 12.140625 -15.703125 C 10.773438 -15.703125 9.691406 -15.242188 8.890625 -14.328125 C 8.085938 -13.421875 7.6875 -12.003906 7.6875 -10.078125 L 7.6875 0 Z M 2.796875 0 "/></g></g></g><g fill="#ffffff" fill-opacity="1"><g transform="translate(135.456019, 40.219145)"><g><path d="M 5.234375 -21.78125 C 4.359375 -21.78125 3.644531 -22.046875 3.09375 -22.578125 C 2.539062 -23.117188 2.265625 -23.8125 2.265625 -24.65625 C 2.265625 -25.488281 2.539062 -26.171875 3.09375 -26.703125 C 3.644531 -27.242188 4.359375 -27.515625 5.234375 -27.515625 C 5.828125 -27.515625 6.351562 -27.390625 6.8125 -27.140625 C 7.269531 -26.898438 7.625 -26.5625 7.875 -26.125 C 8.125 -25.695312 8.25 -25.207031 8.25 -24.65625 C 8.25 -24.101562 8.125 -23.609375 7.875 -23.171875 C 7.625 -22.742188 7.269531 -22.40625 6.8125 -22.15625 C 6.351562 -21.90625 5.828125 -21.78125 5.234375 -21.78125 Z M 2.796875 0 L 2.796875 -19.453125 L 7.6875 -19.453125 L 7.6875 0 Z M 2.796875 0 "/></g></g></g><g fill="#ffffff" fill-opacity="1"><g transform="translate(145.933594, 40.219145)"><g><path d="M 2.796875 0 L 2.796875 -19.453125 L 7.5 -19.453125 L 7.5 -16.59375 L 7.859375 -16.515625 C 9.078125 -18.722656 11.046875 -19.828125 13.765625 -19.828125 C 16.003906 -19.828125 17.648438 -19.210938 18.703125 -17.984375 C 19.753906 -16.765625 20.28125 -14.984375 20.28125 -12.640625 L 20.28125 0 L 15.40625 0 L 15.40625 -12.046875 C 15.40625 -13.335938 15.144531 -14.269531 14.625 -14.84375 C 14.101562 -15.414062 13.273438 -15.703125 12.140625 -15.703125 C 10.734375 -15.703125 9.640625 -15.25 8.859375 -14.34375 C 8.078125 -13.4375 7.6875 -12.015625 7.6875 -10.078125 L 7.6875 0 Z M 2.796875 0 "/></g></g></g><g fill="#ffffff" fill-opacity="1"><g transform="translate(168.723201, 40.219145)"><g><path d="M 10.09375 8.25 C 6.882812 8.25 4.515625 7.78125 2.984375 6.84375 C 1.453125 5.90625 0.6875 4.59375 0.6875 2.90625 C 0.6875 1.882812 1.007812 1.046875 1.65625 0.390625 C 2.3125 -0.253906 3.253906 -0.691406 4.484375 -0.921875 L 4.484375 -1.28125 C 3.828125 -1.6875 3.351562 -2.128906 3.0625 -2.609375 C 2.769531 -3.097656 2.625 -3.671875 2.625 -4.328125 C 2.625 -5.890625 3.644531 -6.941406 5.6875 -7.484375 L 5.6875 -7.84375 C 4.632812 -8.445312 3.84375 -9.191406 3.3125 -10.078125 C 2.78125 -10.960938 2.515625 -12.035156 2.515625 -13.296875 C 2.515625 -14.585938 2.8125 -15.722656 3.40625 -16.703125 C 4 -17.691406 4.867188 -18.457031 6.015625 -19 C 7.171875 -19.550781 8.546875 -19.828125 10.140625 -19.828125 C 11.765625 -19.828125 13.054688 -19.546875 14.015625 -18.984375 C 14.617188 -19.847656 14.96875 -20.851562 15.0625 -22 L 15.4375 -22.21875 L 18.9375 -21.359375 C 18.832031 -20.429688 18.5625 -19.648438 18.125 -19.015625 C 17.695312 -18.390625 17.023438 -17.832031 16.109375 -17.34375 L 16.109375 -16.953125 C 17.203125 -15.984375 17.75 -14.632812 17.75 -12.90625 C 17.75 -11.707031 17.445312 -10.628906 16.84375 -9.671875 C 16.25 -8.722656 15.375 -7.972656 14.21875 -7.421875 C 13.070312 -6.867188 11.710938 -6.59375 10.140625 -6.59375 L 9.40625 -6.609375 C 8.9375 -6.640625 8.601562 -6.65625 8.40625 -6.65625 C 7.96875 -6.65625 7.617188 -6.53125 7.359375 -6.28125 C 7.109375 -6.039062 6.984375 -5.734375 6.984375 -5.359375 C 6.984375 -4.953125 7.144531 -4.632812 7.46875 -4.40625 C 7.800781 -4.175781 8.285156 -4.046875 8.921875 -4.015625 L 13.28125 -3.859375 C 17.582031 -3.734375 19.734375 -1.882812 19.734375 1.6875 C 19.734375 2.945312 19.410156 4.066406 18.765625 5.046875 C 18.128906 6.035156 17.09375 6.816406 15.65625 7.390625 C 14.226562 7.960938 12.375 8.25 10.09375 8.25 Z M 10.140625 -10.015625 C 11.078125 -10.015625 11.8125 -10.289062 12.34375 -10.84375 C 12.875 -11.394531 13.140625 -12.1875 13.140625 -13.21875 C 13.140625 -14.238281 12.875 -15.019531 12.34375 -15.5625 C 11.8125 -16.113281 11.078125 -16.390625 10.140625 -16.390625 C 9.191406 -16.390625 8.457031 -16.113281 7.9375 -15.5625 C 7.414062 -15.019531 7.15625 -14.238281 7.15625 -13.21875 C 7.15625 -12.175781 7.414062 -11.378906 7.9375 -10.828125 C 8.457031 -10.285156 9.191406 -10.015625 10.140625 -10.015625 Z M 10.09375 4.703125 C 11.757812 4.703125 12.972656 4.46875 13.734375 4 C 14.492188 3.53125 14.875 2.921875 14.875 2.171875 C 14.875 1.554688 14.675781 1.101562 14.28125 0.8125 C 13.894531 0.53125 13.28125 0.378906 12.4375 0.359375 L 8.59375 0.171875 C 8.457031 0.171875 8.332031 0.164062 8.21875 0.15625 C 8.113281 0.144531 8.007812 0.140625 7.90625 0.140625 C 7.082031 0.140625 6.453125 0.316406 6.015625 0.671875 C 5.585938 1.023438 5.375 1.515625 5.375 2.140625 C 5.375 2.960938 5.769531 3.59375 6.5625 4.03125 C 7.351562 4.476562 8.53125 4.703125 10.09375 4.703125 Z M 10.09375 4.703125 "/></g></g></g><g fill="#ffffff" fill-opacity="1"><g transform="translate(188.955151, 40.219145)"><g><path d="M 9.109375 0.375 C 7.773438 0.375 6.554688 0.21875 5.453125 -0.09375 C 4.347656 -0.40625 3.40625 -0.832031 2.625 -1.375 C 1.84375 -1.925781 1.257812 -2.554688 0.875 -3.265625 L 3.59375 -6.1875 L 3.96875 -6.1875 C 4.613281 -5.320312 5.375 -4.671875 6.25 -4.234375 C 7.132812 -3.796875 8.097656 -3.578125 9.140625 -3.578125 C 10.085938 -3.578125 10.800781 -3.75 11.28125 -4.09375 C 11.769531 -4.4375 12.015625 -4.925781 12.015625 -5.5625 C 12.015625 -6.050781 11.835938 -6.460938 11.484375 -6.796875 C 11.140625 -7.128906 10.582031 -7.390625 9.8125 -7.578125 L 7.234375 -8.203125 C 5.304688 -8.660156 3.894531 -9.363281 3 -10.3125 C 2.113281 -11.257812 1.671875 -12.460938 1.671875 -13.921875 C 1.671875 -15.128906 1.976562 -16.179688 2.59375 -17.078125 C 3.21875 -17.972656 4.085938 -18.65625 5.203125 -19.125 C 6.328125 -19.59375 7.640625 -19.828125 9.140625 -19.828125 C 10.890625 -19.828125 12.335938 -19.570312 13.484375 -19.0625 C 14.640625 -18.5625 15.539062 -17.890625 16.1875 -17.046875 L 13.578125 -14.21875 L 13.234375 -14.21875 C 12.691406 -14.832031 12.082031 -15.28125 11.40625 -15.5625 C 10.726562 -15.84375 9.972656 -15.984375 9.140625 -15.984375 C 7.210938 -15.984375 6.25 -15.382812 6.25 -14.1875 C 6.25 -13.675781 6.425781 -13.257812 6.78125 -12.9375 C 7.132812 -12.625 7.765625 -12.367188 8.671875 -12.171875 L 11.078125 -11.640625 C 13.054688 -11.210938 14.5 -10.53125 15.40625 -9.59375 C 16.320312 -8.664062 16.78125 -7.414062 16.78125 -5.84375 C 16.78125 -4.601562 16.472656 -3.515625 15.859375 -2.578125 C 15.242188 -1.640625 14.359375 -0.910156 13.203125 -0.390625 C 12.054688 0.117188 10.691406 0.375 9.109375 0.375 Z M 9.109375 0.375 "/></g></g></g></svg>